<?xml version="1.0" encoding="UTF-8"?>
<svg version="1.1" xmlns="http://www.w3.org/2000/svg" width="1152" height="648">
<path d="M0 0 C1.33263885 0.00406357 1.33263885 0.00406357 2.69219971 0.00820923 C17.03893337 0.07426174 30.75097771 1.11907185 44.75 4.4375 C45.57467773 4.61941895 46.39935547 4.80133789 47.24902344 4.98876953 C83.33549376 12.99764702 115.31251154 32.00079975 141.75 57.4375 C142.24274414 57.90833008 142.73548828 58.37916016 143.24316406 58.86425781 C155.33646845 70.46960103 164.82479059 83.32593702 173.75 97.4375 C174.16282227 98.0881543 174.57564453 98.73880859 175.00097656 99.40917969 C186.80350714 118.32692181 194.04389677 139.74990516 198.75 161.4375 C199.01466064 162.57493652 199.01466064 162.57493652 199.28466797 163.73535156 C206.39404788 195.1744528 205.33005744 240.27738512 190.75 269.4375 C191.45382812 269.37304688 192.15765625 269.30859375 192.8828125 269.2421875 C200.65684271 269.77175359 209.5300796 276.76133977 214.75 282.4375 C224.77982227 295.23584463 226.88266472 307.57045761 225.75 323.4375 C223.72045933 334.61936419 216.21240102 344.38293532 207.12109375 350.9375 C194.63714776 358.83508692 180.98382305 360.86643471 166.42578125 357.71875 C164.04214973 356.79074275 161.93861499 355.7566652 159.75 354.4375 C159.03972656 354.04046875 158.32945312 353.6434375 157.59765625 353.234375 C153.29976922 350.70526457 149.40981644 347.82283021 145.75 344.4375 C145.75 343.7775 145.75 343.1175 145.75 342.4375 C142.20768471 345.50276997 138.67483774 348.56783312 135.26171875 351.77734375 C111.90980048 373.67625378 81.6106433 389.3338977 50.6875 397.25 C49.98270508 397.43264404 49.27791016 397.61528809 48.55175781 397.8034668 C32.70147647 401.59108922 16.81908095 402.99609292 0.5625 402.875 C-0.77021439 402.86993942 -0.77021439 402.86993942 -2.12985229 402.86477661 C-58.19120952 402.55802591 -107.62175106 379.57414468 -146.84423828 340.14575195 C-157.05682087 329.64599892 -165.48939365 317.82892083 -173.25 305.4375 C-173.62866211 304.83808594 -174.00732422 304.23867188 -174.39746094 303.62109375 C-186.2253301 284.62264302 -193.52528323 263.21087343 -198.25 241.4375 C-198.42644043 240.67920898 -198.60288086 239.92091797 -198.78466797 239.13964844 C-204.60233449 213.41276238 -203.25537209 182.9344249 -197.25 157.4375 C-197.06808105 156.61137207 -196.88616211 155.78524414 -196.69873047 154.93408203 C-188.68013554 118.81099264 -169.65944895 86.93124234 -144.25 60.4375 C-143.35410156 59.48875 -142.45820313 58.54 -141.53515625 57.5625 C-130.45745419 46.11066116 -117.71839092 36.8726005 -104.25 28.4375 C-103.35087891 27.86950684 -103.35087891 27.86950684 -102.43359375 27.29003906 C-86.7607443 17.53259013 -69.24051532 10.73043242 -51.4375 6 C-50.60532959 5.77739502 -49.77315918 5.55479004 -48.91577148 5.32543945 C-32.76777289 1.32655013 -16.59127306 -0.11987518 0 0 Z " fill="#FDFDFD" transform="translate(534.25,112.5625)"/>
<path d="M0 0 C13.2 0 26.4 0 40 0 C40 34.65 40 69.3 40 105 C63.62492787 98.25002061 79.24910198 87.83315806 91.25634766 66.25390625 C94.27551213 60.63969439 96.87444541 55.00919502 99 49 C99.43183594 47.78054688 99.86367188 46.56109375 100.30859375 45.3046875 C104.9962349 30.89632257 105.71372094 16.02915537 107 1 C120.2 1 133.4 1 147 1 C147 23.00562701 147 23.00562701 145.25 32.25 C145.06880615 33.2615918 144.8876123 34.27318359 144.70092773 35.31542969 C139.76998231 62.05476681 128.49136002 89.60475397 109.02807617 109.23974609 C107.77069741 110.98791163 107.77069741 110.98791163 108.26127625 113.2457428 C109.09796959 116.36526975 110.3184993 118.95304172 111.79150391 121.82836914 C112.37525787 122.97628433 112.95901184 124.12419952 113.56045532 125.30690002 C114.02898359 126.21812213 114.02898359 126.21812213 114.50697708 127.14775276 C115.48791385 129.0572529 116.46014318 130.97095567 117.43002319 132.88609314 C120.1875812 138.32800573 122.95863856 143.76296349 125.74023438 149.19262695 C127.44383773 152.519529 129.13573286 155.85216911 130.82053757 159.18862724 C131.46433258 160.45759133 132.11267293 161.72425998 132.76561356 162.98854256 C133.67703869 164.75380116 134.57254525 166.52725139 135.46728516 168.30102539 C135.98167145 169.30742569 136.49605774 170.31382599 137.02603149 171.35072327 C138.07496821 174.20391988 138.22519145 175.25888621 137 178 C135.3777546 179.70993434 133.70586575 181.37347684 132 183 C125.08194835 190.35042987 122.12608599 199.91305727 121.4375 209.75 C121.293125 211.8125 121.14875 213.875 121 216 C116.71 216 112.42 216 108 216 C107.34 214.37964844 106.68 212.75929688 106 211.08984375 C102.88550634 203.61746483 99.49915823 196.27837313 96.09762573 188.93319702 C94.2172976 184.8719873 92.34452464 180.80730206 90.47265625 176.7421875 C90.09673843 175.92588364 89.72082062 175.10957977 89.33351135 174.26853943 C85.65228641 166.26354431 82.0331982 158.2312186 78.4375 150.1875 C78.15624268 149.558367 77.87498535 148.92923401 77.58520508 148.28103638 C76.05430618 144.85513503 74.5258994 141.42813085 73 138 C67.59793099 139.01191826 62.63075847 140.86582798 57.47265625 142.74609375 C51.45241446 144.43386459 45.18951081 145.11578417 39 146 C39 168.77 39 191.54 39 215 C26.13 215 13.26 215 0 215 C0 144.05 0 73.1 0 0 Z " fill="#02131A" transform="translate(548,214)"/>
<path d="M0 0 C29.37 0 58.74 0 89 0 C89.16121214 38.7670408 89.16121214 38.7670408 89.1953125 55.07617188 C89.21899977 66.31444646 89.24676859 77.55260063 89.30175781 88.79077148 C89.34179605 96.97734818 89.367473 105.16382672 89.37635398 113.35049862 C89.38154016 117.6798859 89.39361209 122.0089925 89.42292023 126.33828926 C89.45035879 130.42508193 89.45838854 134.51148211 89.45243073 138.59835815 C89.4535184 140.08691997 89.46130135 141.57549689 89.4768219 143.0639782 C89.68342108 163.9261319 83.19647848 183.14911427 68.9375 198.625 C60.6473048 206.60448941 49.93342535 211.70952645 39 215 C38.29359375 215.21269531 37.5871875 215.42539062 36.859375 215.64453125 C16.26953469 221.27836551 -8.87498007 219.3216407 -28 210 C-44.65673232 200.42137064 -55.4481069 186.84649473 -60.71704102 168.28857422 C-63.28802411 158.75603316 -64 150.99587473 -64 141 C-50.14 141 -36.28 141 -22 141 C-21.01 147.435 -21.01 147.435 -20 154 C-17.45541894 162.76466811 -14.44602273 169.58772638 -6.5 174.56640625 C3.82272398 179.95818619 15.32873604 180.43486908 26.65234375 177.8203125 C33.44495512 175.44685428 39.00456232 170.93607883 43 165 C46.08713592 158.50131726 48.10188551 152.34356036 48.15821838 145.10881042 C48.1680072 144.1511377 48.17779602 143.19346497 48.18788147 142.20677185 C48.19363693 141.16811478 48.1993924 140.1294577 48.20532227 139.05932617 C48.21522186 137.95644257 48.22512146 136.85355896 48.23532104 135.71725464 C48.26688063 132.07584776 48.29167168 128.43442785 48.31640625 124.79296875 C48.33698055 122.26662357 48.35797715 119.74028179 48.37937927 117.21394348 C48.42891316 111.24654134 48.47419121 105.27912162 48.51740164 99.31167156 C48.56684711 92.51600686 48.62173804 85.72038954 48.67708123 78.92477071 C48.79077024 64.94988968 48.89691878 50.97496309 49 37 C32.83 37 16.66 37 0 37 C0 24.79 0 12.58 0 0 Z " fill="#02141B" transform="translate(420,215)"/>
<path d="M0 0 C9.84675494 7.94409512 15.07323717 16.44412966 16.68359375 29.0078125 C17.27904718 39.28849829 13.54995697 47.45979075 8.1875 56 C-0.30779308 64.49529308 -10.08632085 69.29466492 -22.125 69.3125 C-33.52120458 68.41580293 -42.31206335 64.07900197 -50.14453125 55.7890625 C-58.14775623 45.78108491 -58.79884543 35.61324199 -58.125 23.3125 C-56.39920488 14.45251246 -50.12753511 5.84719602 -43.125 0.3125 C-29.96769523 -7.54533479 -13.01379518 -9.07996736 0 0 Z " fill="#70E000" transform="translate(735.125,394.6875)"/>
<path d="M0 0 C4.95 0 9.9 0 15 0 C15 0.33 15 0.66 15 1 C10.05 1 5.1 1 0 1 C0 0.67 0 0.34 0 0 Z " fill="#FEFEFE" transform="translate(767,453)"/>
<path d="M0 0 C3 1 3 1 3 1 Z " fill="#FEFEFE" transform="translate(725,546)"/>
</svg>
